<svg xmlns="http://www.w3.org/2000/svg" xmlns:xlink="http://www.w3.org/1999/xlink" width="672" height="288" version="1.1" viewBox="0 0 504 216"><defs><style type="text/css">*{stroke-linecap:butt;stroke-linejoin:round;stroke-miterlimit:100000}</style></defs><g id="figure_1"><g id="patch_1"><path d="M 0 216 L 504 216 L 504 0 L 0 0 z" style="fill:#fff"/></g><g id="axes_1"><g id="patch_2"><path d="M 63 194.4 L 453.6 194.4 L 453.6 21.6 L 63 21.6 z" style="fill:#fff"/></g><g id="line2d_1"><path d="M 63 108 L 72.774775 85.616165 L 78.248649 73.654008 L 82.54955 64.760789 L 86.459459 57.171401 L 89.978378 50.815794 L 93.106306 45.591668 L 96.234234 40.806169 L 98.971171 37.005188 L 101.708108 33.586287 L 104.054054 30.97391 L 106.4 28.666128 L 108.745946 26.672068 L 111.091892 24.999615 L 113.046847 23.856386 L 115.001802 22.944251 L 116.956757 22.265715 L 118.911712 21.822641 L 120.866667 21.616246 L 122.821622 21.647097 L 124.776577 21.915109 L 126.731532 22.419547 L 128.686486 23.159024 L 130.641441 24.13151 L 132.596396 25.334335 L 134.551351 26.764194 L 136.897297 28.774137 L 139.243243 31.097376 L 141.589189 33.724721 L 144.326126 37.160389 L 147.063063 40.977302 L 149.8 45.154917 L 152.927928 50.342086 L 156.446847 56.660109 L 159.965766 63.434741 L 163.875676 71.424231 L 168.567568 81.533605 L 174.432432 94.739064 L 193.981982 139.246052 L 198.673874 149.105085 L 202.583784 156.831083 L 206.102703 163.328437 L 209.230631 168.692458 L 212.358559 173.629913 L 215.095495 177.572909 L 217.832432 181.141479 L 220.569369 184.316415 L 222.915315 186.711478 L 225.261261 188.795281 L 227.607207 190.559583 L 229.562162 191.7807 L 231.517117 192.77172 L 233.472072 193.529922 L 235.427027 194.053222 L 237.381982 194.340184 L 239.336937 194.39002 L 241.291892 194.202592 L 243.246847 193.778416 L 245.201802 193.118657 L 247.156757 192.225126 L 249.111712 191.100277 L 251.066667 189.747201 L 253.412613 187.827523 L 255.758559 185.592172 L 258.104505 183.049987 L 260.45045 180.211021 L 263.187387 176.538836 L 265.924324 172.497789 L 269.052252 167.455766 L 272.18018 161.99587 L 275.699099 155.401881 L 279.609009 147.583453 L 283.90991 138.484727 L 289.383784 126.33547 L 297.594595 107.456593 L 307.369369 85.091753 L 312.452252 73.986729 L 316.753153 65.074811 L 320.663063 57.464799 L 324.181982 51.087868 L 327.30991 45.84275 L 330.437838 41.034494 L 333.174775 37.212279 L 335.911712 33.771029 L 338.257658 31.1387 L 340.603604 28.810315 L 342.94955 26.795081 L 345.295495 25.100967 L 347.25045 23.939378 L 349.205405 23.008655 L 351.16036 22.311353 L 353.115315 21.849389 L 355.07027 21.62403 L 357.025225 21.635896 L 358.98018 21.884954 L 360.935135 22.37052 L 362.89009 23.09126 L 364.845045 24.045196 L 366.8 25.229706 L 368.754955 26.641539 L 371.100901 28.6303 L 373.446847 30.932924 L 375.792793 33.540306 L 378.52973 36.95361 L 381.266667 40.749272 L 384.003604 44.906863 L 387.131532 50.072788 L 390.65045 56.369181 L 394.169369 63.12477 L 398.079279 71.096343 L 402.771171 81.18898 L 408.636036 94.381201 L 428.185586 138.908024 L 432.877477 148.786076 L 436.787387 156.531789 L 440.306306 163.049703 L 443.434234 168.434086 L 446.562162 173.393719 L 449.299099 177.357489 L 452.036036 180.947992 L 453.6 182.824595 L 453.6 182.824595" clip-path="url(#pf15ca4d2c4)" style="fill:none;stroke:#00f;stroke-linecap:square"/></g><g id="patch_3"><path d="M 63 21.6 L 453.6 21.6" style="fill:none;stroke:#000;stroke-linecap:square;stroke-linejoin:miter"/></g><g id="patch_4"><path d="M 453.6 194.4 L 453.6 21.6" style="fill:none;stroke:#000;stroke-linecap:square;stroke-linejoin:miter"/></g><g id="patch_5"><path d="M 63 194.4 L 63 21.6" style="fill:none;stroke:#000;stroke-linecap:square;stroke-linejoin:miter"/></g><g id="patch_6"><path d="M 63 194.4 L 453.6 194.4" style="fill:none;stroke:#000;stroke-linecap:square;stroke-linejoin:miter"/></g><g id="matplotlib.axis_1"><g id="xtick_1"><g id="line2d_2"><path d="M 63 194.4 L 63 21.6" clip-path="url(#pf15ca4d2c4)" style="fill:none;stroke:#000;stroke-dasharray:1,3;stroke-dashoffset:0;stroke-width:.5"/></g><g id="line2d_3"><defs><path id="m0b6e14d676" d="M 0 0 L 0 -4" style="stroke:#000;stroke-width:.5"/></defs><g><use style="stroke:#000;stroke-width:.5" x="63" y="194.4" xlink:href="#m0b6e14d676"/></g></g><g id="line2d_4"><defs><path id="m204a3b95ce" d="M 0 0 L 0 4" style="stroke:#000;stroke-width:.5"/></defs><g><use style="stroke:#000;stroke-width:.5" x="63" y="21.6" xlink:href="#m204a3b95ce"/></g></g><g id="text_1"><defs><path id="BitstreamVeraSans-Roman-30" d="M 31.78125 66.40625 Q 24.171875 66.40625 20.328125 58.90625 Q 16.5 51.421875 16.5 36.375 Q 16.5 21.390625 20.328125 13.890625 Q 24.171875 6.390625 31.78125 6.390625 Q 39.453125 6.390625 43.28125 13.890625 Q 47.125 21.390625 47.125 36.375 Q 47.125 51.421875 43.28125 58.90625 Q 39.453125 66.40625 31.78125 66.40625 M 31.78125 74.21875 Q 44.046875 74.21875 50.515625 64.515625 Q 56.984375 54.828125 56.984375 36.375 Q 56.984375 17.96875 50.515625 8.265625 Q 44.046875 -1.421875 31.78125 -1.421875 Q 19.53125 -1.421875 13.0625 8.265625 Q 6.59375 17.96875 6.59375 36.375 Q 6.59375 54.828125 13.0625 64.515625 Q 19.53125 74.21875 31.78125 74.21875"/></defs><g transform="translate(59.1825 207.518125)scale(0.12 -0.12)"><use xlink:href="#BitstreamVeraSans-Roman-30"/></g></g></g><g id="xtick_2"><g id="line2d_5"><path d="M 141.12 194.4 L 141.12 21.6" clip-path="url(#pf15ca4d2c4)" style="fill:none;stroke:#000;stroke-dasharray:1,3;stroke-dashoffset:0;stroke-width:.5"/></g><g id="line2d_6"><g><use style="stroke:#000;stroke-width:.5" x="141.12" y="194.4" xlink:href="#m0b6e14d676"/></g></g><g id="line2d_7"><g><use style="stroke:#000;stroke-width:.5" x="141.12" y="21.6" xlink:href="#m204a3b95ce"/></g></g><g id="text_2"><defs><path id="BitstreamVeraSans-Roman-32" d="M 19.1875 8.296875 L 53.609375 8.296875 L 53.609375 0 L 7.328125 0 L 7.328125 8.296875 Q 12.9375 14.109375 22.625 23.890625 Q 32.328125 33.6875 34.8125 36.53125 Q 39.546875 41.84375 41.421875 45.53125 Q 43.3125 49.21875 43.3125 52.78125 Q 43.3125 58.59375 39.234375 62.25 Q 35.15625 65.921875 28.609375 65.921875 Q 23.96875 65.921875 18.8125 64.3125 Q 13.671875 62.703125 7.8125 59.421875 L 7.8125 69.390625 Q 13.765625 71.78125 18.9375 73 Q 24.125 74.21875 28.421875 74.21875 Q 39.75 74.21875 46.484375 68.546875 Q 53.21875 62.890625 53.21875 53.421875 Q 53.21875 48.921875 51.53125 44.890625 Q 49.859375 40.875 45.40625 35.40625 Q 44.1875 33.984375 37.640625 27.21875 Q 31.109375 20.453125 19.1875 8.296875"/></defs><g transform="translate(137.3025 207.518125)scale(0.12 -0.12)"><use xlink:href="#BitstreamVeraSans-Roman-32"/></g></g></g><g id="xtick_3"><g id="line2d_8"><path d="M 219.24 194.4 L 219.24 21.6" clip-path="url(#pf15ca4d2c4)" style="fill:none;stroke:#000;stroke-dasharray:1,3;stroke-dashoffset:0;stroke-width:.5"/></g><g id="line2d_9"><g><use style="stroke:#000;stroke-width:.5" x="219.24" y="194.4" xlink:href="#m0b6e14d676"/></g></g><g id="line2d_10"><g><use style="stroke:#000;stroke-width:.5" x="219.24" y="21.6" xlink:href="#m204a3b95ce"/></g></g><g id="text_3"><defs><path id="BitstreamVeraSans-Roman-34" d="M 37.796875 64.3125 L 12.890625 25.390625 L 37.796875 25.390625 z M 35.203125 72.90625 L 47.609375 72.90625 L 47.609375 25.390625 L 58.015625 25.390625 L 58.015625 17.1875 L 47.609375 17.1875 L 47.609375 0 L 37.796875 0 L 37.796875 17.1875 L 4.890625 17.1875 L 4.890625 26.703125 z"/></defs><g transform="translate(215.4225 207.518125)scale(0.12 -0.12)"><use xlink:href="#BitstreamVeraSans-Roman-34"/></g></g></g><g id="xtick_4"><g id="line2d_11"><path d="M 297.36 194.4 L 297.36 21.6" clip-path="url(#pf15ca4d2c4)" style="fill:none;stroke:#000;stroke-dasharray:1,3;stroke-dashoffset:0;stroke-width:.5"/></g><g id="line2d_12"><g><use style="stroke:#000;stroke-width:.5" x="297.36" y="194.4" xlink:href="#m0b6e14d676"/></g></g><g id="line2d_13"><g><use style="stroke:#000;stroke-width:.5" x="297.36" y="21.6" xlink:href="#m204a3b95ce"/></g></g><g id="text_4"><defs><path id="BitstreamVeraSans-Roman-36" d="M 33.015625 40.375 Q 26.375 40.375 22.484375 35.828125 Q 18.609375 31.296875 18.609375 23.390625 Q 18.609375 15.53125 22.484375 10.953125 Q 26.375 6.390625 33.015625 6.390625 Q 39.65625 6.390625 43.53125 10.953125 Q 47.40625 15.53125 47.40625 23.390625 Q 47.40625 31.296875 43.53125 35.828125 Q 39.65625 40.375 33.015625 40.375 M 52.59375 71.296875 L 52.59375 62.3125 Q 48.875 64.0625 45.09375 64.984375 Q 41.3125 65.921875 37.59375 65.921875 Q 27.828125 65.921875 22.671875 59.328125 Q 17.53125 52.734375 16.796875 39.40625 Q 19.671875 43.65625 24.015625 45.921875 Q 28.375 48.1875 33.59375 48.1875 Q 44.578125 48.1875 50.953125 41.515625 Q 57.328125 34.859375 57.328125 23.390625 Q 57.328125 12.15625 50.6875 5.359375 Q 44.046875 -1.421875 33.015625 -1.421875 Q 20.359375 -1.421875 13.671875 8.265625 Q 6.984375 17.96875 6.984375 36.375 Q 6.984375 53.65625 15.1875 63.9375 Q 23.390625 74.21875 37.203125 74.21875 Q 40.921875 74.21875 44.703125 73.484375 Q 48.484375 72.75 52.59375 71.296875"/></defs><g transform="translate(293.5425 207.518125)scale(0.12 -0.12)"><use xlink:href="#BitstreamVeraSans-Roman-36"/></g></g></g><g id="xtick_5"><g id="line2d_14"><path d="M 375.48 194.4 L 375.48 21.6" clip-path="url(#pf15ca4d2c4)" style="fill:none;stroke:#000;stroke-dasharray:1,3;stroke-dashoffset:0;stroke-width:.5"/></g><g id="line2d_15"><g><use style="stroke:#000;stroke-width:.5" x="375.48" y="194.4" xlink:href="#m0b6e14d676"/></g></g><g id="line2d_16"><g><use style="stroke:#000;stroke-width:.5" x="375.48" y="21.6" xlink:href="#m204a3b95ce"/></g></g><g id="text_5"><defs><path id="BitstreamVeraSans-Roman-38" d="M 31.78125 34.625 Q 24.75 34.625 20.71875 30.859375 Q 16.703125 27.09375 16.703125 20.515625 Q 16.703125 13.921875 20.71875 10.15625 Q 24.75 6.390625 31.78125 6.390625 Q 38.8125 6.390625 42.859375 10.171875 Q 46.921875 13.96875 46.921875 20.515625 Q 46.921875 27.09375 42.890625 30.859375 Q 38.875 34.625 31.78125 34.625 M 21.921875 38.8125 Q 15.578125 40.375 12.03125 44.71875 Q 8.5 49.078125 8.5 55.328125 Q 8.5 64.0625 14.71875 69.140625 Q 20.953125 74.21875 31.78125 74.21875 Q 42.671875 74.21875 48.875 69.140625 Q 55.078125 64.0625 55.078125 55.328125 Q 55.078125 49.078125 51.53125 44.71875 Q 48 40.375 41.703125 38.8125 Q 48.828125 37.15625 52.796875 32.3125 Q 56.78125 27.484375 56.78125 20.515625 Q 56.78125 9.90625 50.3125 4.234375 Q 43.84375 -1.421875 31.78125 -1.421875 Q 19.734375 -1.421875 13.25 4.234375 Q 6.78125 9.90625 6.78125 20.515625 Q 6.78125 27.484375 10.78125 32.3125 Q 14.796875 37.15625 21.921875 38.8125 M 18.3125 54.390625 Q 18.3125 48.734375 21.84375 45.5625 Q 25.390625 42.390625 31.78125 42.390625 Q 38.140625 42.390625 41.71875 45.5625 Q 45.3125 48.734375 45.3125 54.390625 Q 45.3125 60.0625 41.71875 63.234375 Q 38.140625 66.40625 31.78125 66.40625 Q 25.390625 66.40625 21.84375 63.234375 Q 18.3125 60.0625 18.3125 54.390625"/></defs><g transform="translate(371.6625 207.518125)scale(0.12 -0.12)"><use xlink:href="#BitstreamVeraSans-Roman-38"/></g></g></g><g id="xtick_6"><g id="line2d_17"><path d="M 453.6 194.4 L 453.6 21.6" clip-path="url(#pf15ca4d2c4)" style="fill:none;stroke:#000;stroke-dasharray:1,3;stroke-dashoffset:0;stroke-width:.5"/></g><g id="line2d_18"><g><use style="stroke:#000;stroke-width:.5" x="453.6" y="194.4" xlink:href="#m0b6e14d676"/></g></g><g id="line2d_19"><g><use style="stroke:#000;stroke-width:.5" x="453.6" y="21.6" xlink:href="#m204a3b95ce"/></g></g><g id="text_6"><defs><path id="BitstreamVeraSans-Roman-31" d="M 12.40625 8.296875 L 28.515625 8.296875 L 28.515625 63.921875 L 10.984375 60.40625 L 10.984375 69.390625 L 28.421875 72.90625 L 38.28125 72.90625 L 38.28125 8.296875 L 54.390625 8.296875 L 54.390625 0 L 12.40625 0 z"/></defs><g transform="translate(445.965 207.518125)scale(0.12 -0.12)"><use xlink:href="#BitstreamVeraSans-Roman-31"/><use x="63.623" xlink:href="#BitstreamVeraSans-Roman-30"/></g></g></g></g><g id="matplotlib.axis_2"><g id="ytick_1"><g id="line2d_20"><path d="M 63 194.4 L 453.6 194.4" clip-path="url(#pf15ca4d2c4)" style="fill:none;stroke:#000;stroke-dasharray:1,3;stroke-dashoffset:0;stroke-width:.5"/></g><g id="line2d_21"><defs><path id="m3db0750c60" d="M 0 0 L 4 0" style="stroke:#000;stroke-width:.5"/></defs><g><use style="stroke:#000;stroke-width:.5" x="63" y="194.4" xlink:href="#m3db0750c60"/></g></g><g id="line2d_22"><defs><path id="m5f8d338062" d="M 0 0 L -4 0" style="stroke:#000;stroke-width:.5"/></defs><g><use style="stroke:#000;stroke-width:.5" x="453.6" y="194.4" xlink:href="#m5f8d338062"/></g></g><g id="text_7"><defs><path id="BitstreamVeraSans-Roman-2212" d="M 10.59375 35.5 L 73.1875 35.5 L 73.1875 27.203125 L 10.59375 27.203125 z"/><path id="BitstreamVeraSans-Roman-2e" d="M 10.6875 12.40625 L 21 12.40625 L 21 0 L 10.6875 0 z"/></defs><g transform="translate(29.860625 197.71125)scale(0.12 -0.12)"><use xlink:href="#BitstreamVeraSans-Roman-2212"/><use x="83.789" xlink:href="#BitstreamVeraSans-Roman-31"/><use x="147.412" xlink:href="#BitstreamVeraSans-Roman-2e"/><use x="179.199" xlink:href="#BitstreamVeraSans-Roman-30"/></g></g></g><g id="ytick_2"><g id="line2d_23"><path d="M 63 151.2 L 453.6 151.2" clip-path="url(#pf15ca4d2c4)" style="fill:none;stroke:#000;stroke-dasharray:1,3;stroke-dashoffset:0;stroke-width:.5"/></g><g id="line2d_24"><g><use style="stroke:#000;stroke-width:.5" x="63" y="151.2" xlink:href="#m3db0750c60"/></g></g><g id="line2d_25"><g><use style="stroke:#000;stroke-width:.5" x="453.6" y="151.2" xlink:href="#m5f8d338062"/></g></g><g id="text_8"><defs><path id="BitstreamVeraSans-Roman-35" d="M 10.796875 72.90625 L 49.515625 72.90625 L 49.515625 64.59375 L 19.828125 64.59375 L 19.828125 46.734375 Q 21.96875 47.46875 24.109375 47.828125 Q 26.265625 48.1875 28.421875 48.1875 Q 40.625 48.1875 47.75 41.5 Q 54.890625 34.8125 54.890625 23.390625 Q 54.890625 11.625 47.5625 5.09375 Q 40.234375 -1.421875 26.90625 -1.421875 Q 22.3125 -1.421875 17.546875 -0.640625 Q 12.796875 0.140625 7.71875 1.703125 L 7.71875 11.625 Q 12.109375 9.234375 16.796875 8.0625 Q 21.484375 6.890625 26.703125 6.890625 Q 35.15625 6.890625 40.078125 11.328125 Q 45.015625 15.765625 45.015625 23.390625 Q 45.015625 31 40.078125 35.4375 Q 35.15625 39.890625 26.703125 39.890625 Q 22.75 39.890625 18.8125 39.015625 Q 14.890625 38.140625 10.796875 36.28125 z"/></defs><g transform="translate(29.860625 154.51125)scale(0.12 -0.12)"><use xlink:href="#BitstreamVeraSans-Roman-2212"/><use x="83.789" xlink:href="#BitstreamVeraSans-Roman-30"/><use x="147.412" xlink:href="#BitstreamVeraSans-Roman-2e"/><use x="179.199" xlink:href="#BitstreamVeraSans-Roman-35"/></g></g></g><g id="ytick_3"><g id="line2d_26"><path d="M 63 108 L 453.6 108" clip-path="url(#pf15ca4d2c4)" style="fill:none;stroke:#000;stroke-dasharray:1,3;stroke-dashoffset:0;stroke-width:.5"/></g><g id="line2d_27"><g><use style="stroke:#000;stroke-width:.5" x="63" y="108" xlink:href="#m3db0750c60"/></g></g><g id="line2d_28"><g><use style="stroke:#000;stroke-width:.5" x="453.6" y="108" xlink:href="#m5f8d338062"/></g></g><g id="text_9"><g transform="translate(39.91625 111.31125)scale(0.12 -0.12)"><use xlink:href="#BitstreamVeraSans-Roman-30"/><use x="63.623" xlink:href="#BitstreamVeraSans-Roman-2e"/><use x="95.41" xlink:href="#BitstreamVeraSans-Roman-30"/></g></g></g><g id="ytick_4"><g id="line2d_29"><path d="M 63 64.8 L 453.6 64.8" clip-path="url(#pf15ca4d2c4)" style="fill:none;stroke:#000;stroke-dasharray:1,3;stroke-dashoffset:0;stroke-width:.5"/></g><g id="line2d_30"><g><use style="stroke:#000;stroke-width:.5" x="63" y="64.8" xlink:href="#m3db0750c60"/></g></g><g id="line2d_31"><g><use style="stroke:#000;stroke-width:.5" x="453.6" y="64.8" xlink:href="#m5f8d338062"/></g></g><g id="text_10"><g transform="translate(39.91625 68.11125)scale(0.12 -0.12)"><use xlink:href="#BitstreamVeraSans-Roman-30"/><use x="63.623" xlink:href="#BitstreamVeraSans-Roman-2e"/><use x="95.41" xlink:href="#BitstreamVeraSans-Roman-35"/></g></g></g><g id="ytick_5"><g id="line2d_32"><path d="M 63 21.6 L 453.6 21.6" clip-path="url(#pf15ca4d2c4)" style="fill:none;stroke:#000;stroke-dasharray:1,3;stroke-dashoffset:0;stroke-width:.5"/></g><g id="line2d_33"><g><use style="stroke:#000;stroke-width:.5" x="63" y="21.6" xlink:href="#m3db0750c60"/></g></g><g id="line2d_34"><g><use style="stroke:#000;stroke-width:.5" x="453.6" y="21.6" xlink:href="#m5f8d338062"/></g></g><g id="text_11"><g transform="translate(39.91625 24.91125)scale(0.12 -0.12)"><use xlink:href="#BitstreamVeraSans-Roman-31"/><use x="63.623" xlink:href="#BitstreamVeraSans-Roman-2e"/><use x="95.41" xlink:href="#BitstreamVeraSans-Roman-30"/></g></g></g></g></g></g><defs><clipPath id="pf15ca4d2c4"><rect width="390.6" height="172.8" x="63" y="21.6"/></clipPath></defs></svg>